<svg width="24" height="24" viewBox="0 0 24 24" fill="none" xmlns="http://www.w3.org/2000/svg">
<g clip-path="url(#clip0_59_167)">
<path d="M21 5H7C5.89543 5 5 5.89543 5 7V21C5 22.1046 5.89543 23 7 23H21C22.1046 23 23 22.1046 23 21V7C23 5.89543 22.1046 5 21 5Z" stroke="#2F5AA6" stroke-width="2" stroke-linecap="round" stroke-linejoin="round"/>
<path d="M5 19H3C1.89543 19 1 18.1046 1 17V3C1 1.89543 1.89543 1 3 1H17C18.1046 1 19 1.89543 19 3V5" stroke="#2F5AA6" stroke-width="2" stroke-linecap="round" stroke-linejoin="round"/>
<path d="M10.5 12C11.3284 12 12 11.3284 12 10.5C12 9.67157 11.3284 9 10.5 9C9.67157 9 9 9.67157 9 10.5C9 11.3284 9.67157 12 10.5 12Z" stroke="#2F5AA6" stroke-width="2" stroke-linecap="round" stroke-linejoin="round"/>
<path d="M23 17L18 12L7 23" stroke="#2F5AA6" stroke-width="2" stroke-linecap="round" stroke-linejoin="round"/>
</g>
<defs>
<clipPath id="clip0_59_167">
<rect width="24" height="24" fill="white"/>
</clipPath>
</defs>
</svg>
