<svg width="373" height="106" viewBox="0 0 373 106" fill="none" xmlns="http://www.w3.org/2000/svg">
<mask id="mask0_6_1318" style="mask-type:alpha" maskUnits="userSpaceOnUse" x="0" y="0" width="373" height="106">
<rect width="373" height="106" transform="matrix(1 0 0 -1 0 106)" fill="#D9D9D9"/>
</mask>
<g mask="url(#mask0_6_1318)">
<path d="M186.841 -166.724C188.91 -165.87 190.734 -167.02 192.59 -167.595C203.202 -170.93 213.831 -174.232 224.427 -177.616C224.722 -177.139 225.018 -176.646 225.314 -176.17C220.878 -174.659 216.459 -173.164 212.024 -171.669C211.186 -171.39 210.217 -171.472 209.313 -171.39C209.133 -171.028 208.952 -170.683 208.788 -170.322C208.985 -170.667 209.165 -171.028 209.363 -171.373C210.348 -170.946 211.35 -170.158 212.336 -170.19C214.143 -170.256 215.95 -170.765 217.757 -171.16C220.895 -171.85 224.032 -172.54 227.154 -173.229C228.106 -171.735 229.076 -170.24 230.061 -168.745C221.831 -167.628 213.699 -165.903 205.666 -163.521C188.878 -158.527 172.779 -151.857 157.551 -143.184C156.089 -142.346 154.824 -141.163 153.493 -140.112C154.922 -140.391 156.368 -140.555 157.731 -140.999C166.011 -143.742 174.175 -146.831 182.537 -149.311C197.946 -153.894 213.437 -158.198 228.928 -162.519C230.423 -162.946 231.934 -163.34 233.429 -163.734C233.807 -163.192 234.168 -162.667 234.546 -162.125C232.46 -161.582 230.39 -161.007 228.32 -160.433C211.515 -155.701 194.759 -150.855 177.953 -146.141C158.717 -140.736 141.238 -131.816 125.156 -120.037C123.496 -118.822 121.985 -117.393 120.49 -115.98C120.08 -115.586 119.932 -114.896 119.127 -113.237C121.952 -114.994 123.924 -116.078 125.747 -117.36C141.452 -128.465 158.47 -136.843 176.951 -142.132C186.003 -144.728 195.136 -147.028 204.287 -149.245C215.326 -151.923 226.266 -154.913 236.911 -158.823C237.289 -158.297 237.684 -157.771 238.061 -157.246C226.069 -152.876 213.765 -149.492 201.313 -146.65C189.025 -143.841 176.853 -140.637 165.058 -136.153C162.397 -135.151 159.423 -134.609 157.436 -132.276C158.898 -132.489 160.442 -132.522 161.789 -133.015C169.132 -135.726 176.705 -137.598 184.393 -139.011C190.044 -140.046 195.662 -141.245 201.313 -142.165C214.866 -144.383 227.646 -148.802 239.885 -154.798C240.263 -154.289 240.64 -153.779 241.018 -153.287C227.449 -146.404 213.026 -142.149 198.011 -139.652C192.804 -138.781 187.629 -137.73 182.438 -136.744C162.216 -132.9 144.146 -124.374 127.768 -111.988C116.186 -103.232 106.083 -92.8994 95.8984 -82.6322C95.4549 -82.1887 95.2577 -81.5152 94.8963 -80.8745C95.4713 -80.8745 95.997 -80.6774 96.2926 -80.8745C98.2475 -82.0737 100.17 -83.3222 102.059 -84.6035C111.143 -90.8131 120.112 -97.2034 129.328 -103.199C145.427 -113.68 162.939 -120.99 181.452 -125.968C190.537 -128.415 199.588 -130.978 208.574 -133.787C220.928 -137.631 232.377 -143.332 242.907 -150.773C244.139 -149.196 245.388 -147.619 246.653 -146.059C230.373 -131.471 211.827 -119.988 191.128 -111.544C179.859 -106.945 168.31 -103.068 156.844 -98.9282C147.333 -95.4949 137.772 -92.2423 128.26 -88.7761C122.396 -86.6405 117.057 -83.5193 111.915 -79.971C104.326 -74.7306 97.5904 -68.4554 90.7402 -62.3444C79.7174 -52.5043 70.0581 -41.4158 61.253 -29.6045C51.9058 -17.0868 42.7721 -4.42125 33.6877 8.29358C26.4268 18.4457 16.981 25.8874 6.05681 31.6534C-12.6869 41.5427 -31.9727 50.1342 -52.3755 56.0152C-58.7165 57.8387 -65.0739 59.6621 -71.4149 61.4527C-71.7435 61.0092 -72.072 60.5492 -72.3841 60.1057C-45.821 52.7298 -19.8985 43.6454 4.56192 30.4706C15.519 24.5732 24.8005 16.9508 32.3571 7.20937C37.2853 0.851952 42.0164 -5.65331 46.5668 -12.29C57.5075 -28.241 69.0724 -43.6664 82.9372 -57.2518C84.5142 -58.796 85.9434 -60.5045 87.4383 -62.1472C80.6702 -58.3854 75.3313 -53.0464 70.0252 -47.6747C54.9777 -32.4464 41.4908 -15.8383 27.9217 0.671257C19.5109 10.9055 9.72012 19.4478 -1.2534 26.758C-9.89422 32.524 -19.3893 36.6637 -28.7693 40.9842C-43.4062 47.7194 -58.388 53.5019 -73.7476 58.1672C-74.1255 57.6416 -74.5033 57.0995 -74.8811 56.5738C-66.2896 53.9947 -57.813 51.0706 -49.4843 47.6865C-47.4637 46.8652 -45.131 46.4873 -43.7183 44.5489C-44.9996 44.7296 -46.3302 44.7296 -47.513 45.1403C-57.2052 48.5572 -67.0288 51.317 -76.9345 53.6333C-77.2959 53.1076 -77.6573 52.5819 -78.0352 52.0562C-68.2444 49.8385 -58.6015 47.0787 -49.1229 43.6783C-38.2808 39.7685 -27.8658 34.9717 -18.2229 28.5979C-5.06454 19.9078 6.05682 8.9671 16.6854 -2.5321C17.1453 -3.04135 17.6382 -3.53417 18.0324 -4.10913C18.2952 -4.47054 18.3938 -4.9305 18.5745 -5.34119C1.4407 9.19709 -17.1716 20.877 -37.5416 29.7642C-52.0798 36.1052 -66.9302 41.477 -82.257 45.8795C-83.2262 44.4503 -84.1955 43.0047 -85.1483 41.5755C-70.5443 36.8609 -56.5645 30.6184 -42.8969 23.4397C-17.6315 10.1827 4.67691 -6.96751 25.0962 -26.7133C26.1804 -27.7482 28.2503 -28.4381 27.3796 -30.9515C24.8826 -29.2102 22.4678 -27.4854 20.0201 -25.8262C11.6421 -20.1752 3.47771 -14.1956 -5.16312 -8.97165C-21.5741 0.95052 -39.4472 7.68576 -57.6159 13.5832C-70.5771 17.7886 -83.7026 20.9098 -96.9924 23.1111C-97.3538 22.5362 -97.6988 21.9612 -98.0602 21.3862C-76.8195 17.8708 -56.1046 12.0226 -35.866 3.84175C-18.9622 -2.97563 -2.97827 -11.4029 11.8228 -22.13C26.8868 -33.0543 42.1807 -43.6664 57.3925 -54.377C70.9451 -63.9214 84.005 -74.0571 95.9805 -85.5399C101.451 -90.7966 106.872 -96.1027 112.392 -101.31C115.233 -103.988 118.158 -106.583 121.197 -109.031C125.961 -112.908 130.856 -116.621 135.702 -120.415C134.125 -120.218 132.679 -119.693 131.414 -118.888C118.256 -110.411 106.1 -100.571 94.2064 -90.4681C81.9351 -80.0695 69.9431 -69.3589 56.8833 -59.9131C35.0677 -44.1428 12.4964 -29.6209 -11.4548 -17.2511C-40.7285 -2.12141 -71.3985 7.75147 -103.531 12.269C-103.876 11.6776 -104.22 11.1027 -104.565 10.5113C-83.7355 7.70219 -63.3491 2.69183 -43.4883 -4.96335C-21.9684 -13.2428 -1.72978 -24.0849 18.016 -35.8633C19.7244 -36.8819 21.3015 -38.1468 23.4206 -39.6416C20.2008 -40.2002 18.4924 -38.2782 16.4225 -37.5554C14.2705 -36.7997 12.2664 -35.6005 10.1965 -34.6149C7.91312 -33.5306 5.61327 -32.4629 3.31343 -31.4115C1.22714 -30.4587 -0.875565 -29.5224 -2.99471 -28.6189C-5.11384 -27.7153 -7.23298 -26.8283 -9.35212 -25.9576C-11.4877 -25.087 -13.6232 -24.2656 -15.7588 -23.4278C-17.8944 -22.59 -20.0464 -21.7686 -22.1984 -20.9472C-24.5639 -20.0437 -26.9295 -19.1566 -29.295 -18.286C-31.447 -17.4975 -33.6154 -16.709 -35.7838 -15.9697C-37.9523 -15.2305 -40.1371 -14.5241 -42.3384 -13.8177C-44.5232 -13.1278 -46.7245 -12.4543 -48.9258 -11.7807C-51.1271 -11.1072 -53.3283 -10.4665 -55.5296 -9.80945C-57.7309 -9.15235 -59.9322 -8.51168 -62.1499 -7.87101C-64.5811 -7.16463 -67.0124 -6.47467 -69.4436 -5.78472C-71.6613 -5.16048 -73.8626 -4.51981 -76.0803 -3.92843C-78.298 -3.33704 -80.5321 -2.76208 -82.7498 -2.20354C-84.984 -1.64501 -87.2181 -1.08648 -89.4522 -0.560799C-91.6864 -0.0351219 -93.9369 0.457695 -96.1875 0.93409C-98.668 1.44334 -101.149 1.91973 -103.629 2.3797C-105.338 2.69182 -107.046 2.98751 -108.754 3.26678C-109.083 2.69182 -109.412 2.11687 -109.74 1.54191C-79.1194 -3.94485 -49.2872 -12.7007 -20.0299 -23.7892C-17.5494 -24.7256 -15.2331 -26.1055 -12.8512 -27.3047C-15.151 -28.4217 -17.1716 -26.9597 -19.1593 -26.319C-50.0264 -16.249 -81.6164 -9.56303 -113.847 -5.78472C-114.192 -6.40897 -114.52 -7.01678 -114.865 -7.6246C-87.4974 -10.8937 -60.3264 -15.5426 -33.1554 -24.2327C-34.4696 -24.972 -34.6832 -25.1855 -34.8639 -25.1691C-45.6403 -24.5941 -56.4331 -24.167 -67.1931 -23.3785C-84.4583 -22.1136 -100.951 -17.711 -116.952 -11.5015C-117.247 -12.06 -117.56 -12.6185 -117.855 -13.1771C-103.876 -18.4338 -89.6494 -22.7214 -74.7497 -24.4134C-67.4559 -25.2348 -60.08 -25.6126 -52.7369 -25.8755C-39.1186 -26.3519 -25.7138 -28.126 -12.654 -32.1015C-11.537 -32.4464 -9.79566 -32.2329 -9.53282 -34.237C-10.2392 -34.3356 -10.9127 -34.5491 -11.5534 -34.4999C-27.3566 -33.1035 -43.1598 -31.7236 -58.9465 -30.2287C-79.8093 -28.2574 -99.8836 -23.2964 -119.202 -15.7398C-119.974 -17.1854 -120.73 -18.631 -121.486 -20.093C-103.186 -29.0295 -84.0148 -35.2391 -63.9076 -38.7381C-50.3221 -41.1037 -36.8352 -43.9785 -23.3154 -46.7383C-21.1963 -47.1654 -19.1921 -48.1018 -17.1387 -48.841C-17.6644 -49.0546 -18.2229 -49.3667 -18.7157 -49.301C-29.4429 -48.1675 -40.17 -47.0011 -50.8806 -45.7855C-69.0001 -43.7157 -86.6103 -39.5102 -103.531 -32.6764C-110.266 -29.9659 -116.952 -27.1568 -123.572 -24.1999C-123.818 -24.6763 -124.048 -25.1362 -124.295 -25.5962C-121.847 -26.7461 -119.399 -27.896 -116.935 -29.046C-91.8506 -40.6602 -65.4518 -46.8697 -37.8865 -48.9232C-9.48353 -51.0423 16.8989 -59.9788 41.1951 -74.8949C59.6431 -86.197 76.629 -99.5032 93.155 -113.401C106.757 -124.834 121.542 -134.477 137.542 -142.132C148.302 -147.291 159.374 -151.759 170.298 -156.572C172.319 -157.459 174.684 -157.755 176.163 -159.677C174.339 -160.663 172.664 -159.611 171.037 -159.069C160.13 -155.471 149.156 -152.055 138.396 -148.013C124.17 -142.658 110.601 -135.857 98.0668 -127.2C88.621 -120.678 79.1424 -114.173 70.0088 -107.224C37.9917 -82.8458 2.40993 -66.6319 -37.213 -59.2889C-50.0921 -56.9069 -62.8891 -54.0814 -75.7189 -51.4201C-94.249 -47.5597 -112.779 -43.6828 -131.309 -39.8388C-131.572 -40.4137 -131.851 -40.9723 -132.114 -41.5472C-98.3888 -48.5453 -64.6468 -55.4777 -30.9213 -62.4922C-2.0419 -68.4882 24.9483 -79.3139 49.6223 -95.462C61.7294 -103.38 73.2943 -112.087 85.0234 -120.563C98.8389 -130.551 113.311 -139.405 128.983 -146.206C141.238 -151.529 153.904 -155.636 166.569 -159.792C168.869 -160.548 171.07 -161.615 173.304 -162.568C174.586 -162.125 175.506 -162.749 176.311 -163.669C180.22 -163.373 183.703 -164.605 186.906 -166.773M157.107 -132.128C154.594 -132.44 152.754 -130.863 150.717 -129.828C153.394 -129.073 155.415 -130.14 157.107 -132.128ZM146.774 -128.087C148.663 -127.249 149.698 -128.185 150.47 -129.697C149.238 -129.171 148.006 -128.645 146.774 -128.12C145.493 -127.561 144.211 -126.986 142.93 -126.428C144.934 -125.294 145.92 -126.526 146.758 -128.087M140.992 -124.407C142.519 -124.341 142.339 -125.787 142.947 -126.428C142.339 -125.787 141.714 -125.146 140.992 -124.407ZM226.398 -137.467C226.398 -137.467 226.234 -137.336 226.151 -137.253C224.722 -137.697 223.507 -137.451 222.62 -136.218C223.868 -136.547 225.117 -136.876 226.365 -137.188C226.365 -137.286 226.398 -137.368 226.414 -137.467M137.526 -94.5257C155.152 -100.489 173.042 -105.729 190.192 -113.039C205.239 -119.463 219.613 -127.085 232.476 -138.157C230.85 -137.368 229.174 -136.678 227.614 -135.791C209.543 -125.606 190.668 -117.261 171.169 -110.23C161.444 -106.731 151.965 -102.575 142.404 -98.6325C140.121 -97.6962 137.969 -96.3984 134.996 -94.8706C136.441 -94.6571 137.066 -94.345 137.542 -94.5093M-43.4554 44.3518C-42.092 44.8775 -41.3363 44.0725 -40.6628 43.0869C-41.9113 42.8076 -42.7326 43.4647 -43.4554 44.3518ZM-33.9111 39.6207C-36.0303 40.7377 -38.133 41.8548 -40.2521 42.9554C-37.4759 43.1362 -35.2582 42.2326 -33.9111 39.6207ZM33.2278 -18.6638C22.2707 -5.37405 10.3936 7.12723 -2.30475 18.7578C-11.6191 27.3001 -22.3626 33.8547 -33.6647 39.4893C-32.7448 40.4421 -31.6606 40.0314 -30.6749 39.6043C-17.8122 34.0682 -5.21239 28.0886 5.94182 19.3985C15.6176 11.8583 23.8313 2.97109 31.4865 -6.52396C44.037 -22.0643 57.1625 -37.1118 71.2737 -51.2723C73.475 -53.49 75.627 -55.7734 78.6496 -58.9275C73.1136 -56.6933 69.8609 -53.4407 66.2469 -50.6973C53.9263 -41.383 43.0514 -30.5901 33.2113 -18.6803M-74.9304 42.2655C-73.9447 41.5098 -72.9591 40.7706 -71.9735 40.0149C-73.8626 39.4564 -74.1255 41.2634 -74.9304 42.2655ZM61.8115 -54.2128C51.1008 -46.6726 40.9322 -38.4753 31.1908 -29.7195C20.7922 -20.3559 10.2951 -11.0744 -0.382736 -2.03927C-12.7033 8.37572 -26.5188 16.6059 -40.7285 24.1132C-49.2379 28.6143 -58.0266 32.5733 -66.6674 36.828C-68.4087 37.6822 -70.5607 37.9779 -71.6449 39.8835C-70.3471 39.7028 -69.0165 39.6864 -67.8009 39.2921C-45.9031 32.1298 -24.876 23.0783 -5.60667 10.2813C1.85138 5.32022 8.9809 -0.0844154 15.2726 -6.5404C22.1721 -13.6042 29.1538 -20.5858 36.0369 -27.6661C46.9611 -38.8696 58.6738 -49.2188 71.3723 -58.3032C94.9292 -75.1577 119.636 -90.1396 146.018 -102.197C155.399 -106.485 165.156 -109.967 174.832 -113.532C188.845 -118.69 202.545 -124.588 215.786 -131.487C218.118 -132.703 220.813 -133.541 222.357 -135.956C220.878 -135.709 219.35 -135.611 217.938 -135.167C208.525 -132.227 199.276 -128.613 189.715 -126.346C161.575 -119.66 136.343 -107.109 113.032 -90.2217C96.1284 -77.9833 78.9124 -66.1884 61.8443 -54.1635M179.185 -161.697C178.249 -161.04 177.313 -160.383 176.376 -159.743C177.97 -159.398 178.594 -160.515 179.185 -161.697ZM149.353 -138.765C149.353 -138.765 149.518 -138.88 149.583 -138.945C151.045 -138.239 152.195 -138.617 153.099 -139.865C151.867 -139.586 150.651 -139.307 149.419 -139.028C149.403 -138.945 149.386 -138.847 149.37 -138.765M-9.84493 -27.2718C-9.84493 -27.2718 -9.79565 -27.3539 -9.77922 -27.3868C-9.82851 -27.3704 -9.89423 -27.3539 -9.9435 -27.3211C-10.8306 -28.0439 -11.7177 -28.3889 -12.5555 -27.3868C-11.652 -27.3539 -10.7484 -27.3047 -9.84493 -27.2718ZM-38.7736 -41.5144C-48.4822 -39.6581 -58.1908 -37.8182 -67.9159 -36.0276C-83.5876 -33.1364 -98.7337 -28.6189 -113.173 -21.8508C-113.995 -21.4565 -114.882 -21.2101 -115.753 -20.898L-116.295 -19.863C-116.098 -20.208 -115.9 -20.553 -115.703 -20.898C-114.865 -20.7008 -113.978 -20.093 -113.239 -20.208C-111.449 -20.5201 -109.691 -21.1115 -107.95 -21.6865C-90.6514 -27.5018 -72.8605 -30.968 -54.6918 -32.5122C-44.1618 -33.4157 -33.6319 -34.467 -23.069 -35.1241C4.23337 -36.8161 28.8745 -46.3276 51.8565 -60.5866C69.6967 -71.6423 85.9762 -84.7349 101.007 -99.3553C107.102 -105.286 113.032 -111.38 118.995 -117.442C120.03 -118.493 120.802 -119.775 121.788 -121.056C121.115 -121.319 120.835 -121.516 120.737 -121.45C118.075 -119.676 115.381 -117.918 112.769 -116.062C98.1983 -105.647 83.7914 -94.9856 69.056 -84.8171C55.2405 -75.2892 40.7187 -66.9276 25.2769 -60.1924C4.70976 -51.2394 -16.8266 -45.6541 -38.7736 -41.4651M-16.7609 -48.9067C-14.0011 -48.6603 -11.4055 -49.0217 -9.28641 -50.993C-12.0462 -51.2394 -14.6746 -50.993 -16.7609 -48.9067ZM-1.66408 -51.798C-4.3089 -53.9335 -6.57587 -52.57 -8.84286 -51.1408C-7.92292 -51.108 -6.98656 -51.0259 -6.06664 -51.108C-4.58817 -51.2559 -3.12613 -51.5515 -1.66408 -51.7815C-0.678436 -52.2086 0.307205 -52.6193 1.27643 -53.0464C-0.136322 -53.6378 -0.957703 -52.8822 -1.66408 -51.798ZM1.29286 -53.0629C2.17995 -53.5885 3.06703 -54.0978 3.9541 -54.6235C2.62349 -55.0177 1.94995 -54.0978 1.29286 -53.0629ZM13.137 -57.9747C13.9584 -58.0075 14.7798 -58.0239 15.6012 -58.0568C14.7469 -58.3361 13.9256 -58.5168 13.137 -57.9747ZM15.8476 -58.1061C16.8825 -58.9603 17.901 -59.7981 18.9359 -60.6688C17.4082 -60.4716 16.5868 -59.3546 15.8476 -58.1061ZM25.7533 -63.8393C23.6834 -62.8536 21.6136 -61.868 19.5437 -60.8659C22.0571 -60.9316 24.3077 -61.5066 25.7533 -63.8393ZM115.003 -127.282C106.313 -121.664 98.1654 -115.323 90.2145 -108.686C70.6002 -92.3244 50.2794 -76.9812 27.5932 -65.022C27.0346 -64.7263 26.509 -64.3321 25.9833 -63.9871C27.9053 -63.0343 29.4495 -64.3485 30.9937 -65.022C41.5401 -69.671 51.3472 -75.6177 61.0558 -81.778C76.974 -91.8809 92.1694 -103.002 107.266 -114.271C130.577 -131.685 155.858 -145.648 182.405 -157.377C184.245 -158.182 186.085 -159.003 187.695 -160.515C187.153 -160.433 186.594 -160.433 186.085 -160.252C161.329 -151.545 137.148 -141.607 115.003 -127.282Z" fill="white"/>
<path d="M13.8761 33.6904C17.8351 32.3433 21.367 30.3228 24.7182 27.7929C31.9791 22.2897 37.5645 15.2917 42.5256 7.80075C54.5997 -10.3844 66.641 -28.5531 80.6536 -45.3913C91.545 -58.5004 104.276 -69.1125 119.143 -77.3098C130.067 -83.3222 141.632 -87.7576 153.444 -91.6345C172.943 -98.0412 191.473 -106.649 209.379 -116.604C223.408 -124.407 236.09 -133.984 247.983 -144.531C248.394 -144.038 248.805 -143.545 249.215 -143.052C241.412 -136.169 233.248 -129.746 224.591 -123.947C203.284 -109.639 180.122 -99.0925 156.006 -90.501C148.22 -87.7247 140.351 -85.0799 132.761 -81.8601C114.527 -74.1393 98.5595 -63.1822 85.4833 -48.1182C77.6474 -39.0831 70.2222 -29.7195 63.4212 -19.8959C55.9632 -9.1195 48.9815 1.96902 41.3921 12.6304C33.0962 24.2446 23.0098 33.559 8.68506 37.6987C-2.12419 40.8199 -12.4406 45.4688 -22.4942 50.5942C-36.2604 57.6251 -50.0101 64.6889 -63.7763 71.7363C-64.1377 71.2435 -64.5155 70.7671 -64.877 70.2743C-53.5913 64.5082 -42.24 58.8572 -31.0365 52.9269C-16.5803 45.2553 -1.56565 38.9636 13.909 33.6904" fill="white"/>
<path d="M0.0442352 50.7257C3.74041 48.8694 7.35444 46.8652 11.0999 45.1075C23.9133 39.0458 33.9012 29.7643 41.8027 18.1501C45.039 13.4026 48.078 8.54004 51.3142 3.79251C60.7929 -10.1379 72.0456 -22.5735 83.742 -34.6312C95.7997 -47.0668 109.024 -58.0403 123.973 -66.8947C135.061 -73.4657 146.544 -79.2481 158.421 -84.2421C179.021 -92.8993 198.603 -103.495 217.363 -115.618C229.174 -123.257 240.69 -131.323 250.727 -141.245C252.008 -139.734 253.306 -138.239 254.62 -136.744C249.708 -131.192 244.468 -125.935 238.784 -121.056C237.043 -119.561 235.482 -117.869 233.741 -116.341C232.049 -114.846 230.242 -113.466 228.5 -112.037C236.681 -115.388 243.17 -121.154 249.61 -126.822C252.205 -129.105 254.719 -131.454 257.199 -133.869C257.643 -133.393 258.07 -132.9 258.513 -132.424C250.579 -124.933 242.004 -118.148 233.264 -111.544C210.332 -94.2135 184.606 -82.2379 158.47 -70.903C159.029 -70.5744 159.62 -69.9009 160.113 -69.983C161.444 -70.1802 162.791 -70.6073 164.039 -71.1494C188.418 -81.8929 212.402 -93.3921 234.135 -109.015C243.318 -115.618 252.386 -122.403 260.764 -130.025C261.175 -129.582 261.602 -129.138 262.029 -128.695C254.226 -121.746 245.864 -115.421 237.47 -109.162C220.467 -96.4641 201.707 -86.8211 182.734 -77.5068C181.551 -76.9319 180.138 -76.8004 178.824 -76.4719C180.056 -74.977 181.567 -75.1248 183.111 -75.8148C190.011 -78.9031 196.943 -81.9258 203.81 -85.1127C226.447 -95.6098 247.146 -108.752 265.002 -125.606C265.413 -125.179 265.84 -124.752 266.251 -124.325C263.195 -121.417 260.058 -118.592 256.739 -115.931C241.807 -103.955 225.971 -93.4414 208.607 -85.3262C190.701 -76.9811 172.664 -68.9645 154.133 -62.0486C135.883 -55.2312 119.504 -45.1284 104.457 -32.8571C100.941 -29.9823 98.0667 -26.3354 94.8962 -23.0499C95.0112 -22.9513 95.1262 -22.8528 95.2247 -22.7706C102.584 -28.241 109.796 -33.9084 117.32 -39.1323C129.821 -47.806 143.242 -54.722 157.485 -60.1923C172.483 -65.9583 187.481 -71.8229 202.102 -78.4596C220.763 -86.9362 237.946 -98.0247 254.062 -110.723C258.875 -114.518 263.474 -118.51 267.811 -122.764C268.304 -122.272 268.813 -121.779 269.306 -121.302C255.984 -108.719 241.067 -98.1725 225.248 -88.8417C219.137 -85.2277 212.862 -81.9093 206.701 -78.3939C205.206 -77.5396 203.826 -76.4719 202.397 -75.4862C204.5 -74.862 206.208 -76.094 208.015 -76.8004C224.426 -83.1414 239.145 -92.2751 252.501 -103.692C258.694 -108.982 264.772 -114.386 270.456 -120.218C270.653 -120.037 270.834 -119.84 271.031 -119.66C271.343 -119.364 271.655 -119.068 271.951 -118.789C267.187 -114.025 262.062 -109.606 257.002 -105.154C249.593 -98.6653 241.872 -92.5215 233.429 -87.3468C217.445 -77.5561 200.081 -71.133 182.142 -66.0405C179.744 -65.3669 177.428 -64.3813 175.062 -63.5435C174.076 -63.2642 173.091 -63.0014 172.105 -62.7221C169.559 -62.2457 166.996 -61.7693 164.45 -61.3094C164.45 -61.2765 164.433 -61.2272 164.433 -61.1944C164.499 -61.1944 164.565 -61.1944 164.614 -61.1944C167.259 -59.7323 169.772 -60.2909 172.204 -61.7693C173.189 -62.065 174.159 -62.3771 175.144 -62.6893C176.278 -62.8371 177.411 -62.8864 178.528 -63.1493C195.202 -66.8947 210.989 -73.1042 226.135 -80.858C241.33 -88.6281 255.211 -98.3532 267.351 -110.444C269.536 -112.612 271.672 -114.83 273.758 -117.08C274.234 -116.62 274.727 -116.177 275.22 -115.733C264.953 -104.563 253.207 -95.0677 240.312 -86.8211C230.028 -80.2502 219.022 -75.1248 207.785 -70.4594C205.765 -69.6216 203.432 -69.2602 201.067 -66.7304C202.857 -66.8618 203.728 -66.7633 204.484 -67.0261C208.163 -68.2746 211.925 -69.3588 215.457 -70.9523C227.613 -76.439 238.948 -83.4371 249.938 -90.9444C254.669 -94.1642 259.351 -97.5483 263.606 -101.359C268.222 -105.499 272.657 -109.77 276.863 -114.239C277.339 -113.795 277.832 -113.351 278.325 -112.924C276.288 -110.723 274.185 -108.571 272.017 -106.468C262.571 -97.3018 252.057 -89.5645 240.854 -82.7307C237.536 -80.7101 234.234 -78.6896 230.85 -76.6197C231.835 -75.0263 232.887 -75.8969 233.79 -76.2419C243.4 -79.7574 251.762 -85.4084 259.745 -91.6344C267.171 -97.4333 274.234 -103.643 280.641 -110.608C280.69 -110.657 280.723 -110.707 280.773 -110.756C282.415 -109.31 284.074 -107.881 285.734 -106.485C284.551 -104.596 283.384 -102.69 282.251 -100.768C281.758 -99.9138 281.955 -98.6653 281.824 -97.5975C281.824 -97.5975 281.824 -97.5811 281.807 -97.5647C283.779 -99.9795 285.766 -102.378 287.754 -104.776C288.296 -104.316 288.855 -103.873 289.413 -103.429C287.869 -101.557 286.309 -99.7167 284.715 -97.9097C269.783 -81.0387 254.259 -64.7098 236.073 -51.1901C226.858 -44.3234 217.625 -37.5225 207.342 -32.2657C197.108 -27.0418 186.972 -21.6536 176.77 -16.3804C157.583 -6.45819 138.429 3.52969 121.443 17.0823C113.886 23.0948 106.395 29.1893 99.9887 36.4667C97.9024 38.8486 95.7668 41.1814 94.8305 45.0746C97.7874 43.6947 99.1509 41.5592 100.761 39.8014C109.484 30.29 118.667 21.2877 129.558 14.2239C140.351 7.20943 151.505 0.786301 163.366 -4.28978C171.596 -7.80524 179.99 -10.9593 188.385 -14.1298C195.925 -16.9717 203.284 -20.1751 210.102 -24.5119C231.999 -38.4095 251.121 -55.4776 268.189 -74.977C275.992 -83.8971 283.795 -92.8007 291.73 -101.606C292.157 -101.277 292.567 -100.932 292.995 -100.604C288.888 -96.1026 284.863 -91.503 280.888 -86.8704C267.269 -70.9687 253.24 -55.494 237.125 -42.0071C220.599 -28.1752 202.972 -16.3475 182.175 -9.87509C181.732 -9.74367 181.304 -9.57939 180.877 -9.43155C164.581 -3.59981 149.222 4.10464 134.503 13.1726C123.858 19.7271 114.658 28.023 105.853 36.7952C104.079 38.553 102.108 40.2778 102.174 43.1526C111.307 33.0169 121.837 24.5568 133.32 17.2959C147.973 8.03079 163.711 1.08202 180.302 -3.86264C194.561 -8.10092 207.44 -15.0004 219.564 -23.477C237.158 -35.7976 252.583 -50.5823 267.368 -66.0405C276.255 -75.3384 284.814 -84.9648 293.208 -94.7227C294.194 -95.8727 295.196 -96.9897 296.198 -98.1068C296.707 -97.7125 297.216 -97.3347 297.726 -96.9569C294.949 -93.9014 292.222 -90.813 289.446 -87.774C292.781 -90.4023 295.984 -93.1293 299.171 -95.8727C299.713 -95.462 300.255 -95.0677 300.798 -94.6735C298.35 -92.3572 295.951 -89.9752 293.602 -87.5275C283.582 -77.0633 274.432 -65.8433 265.298 -54.607C253.651 -40.3151 241.002 -26.9432 226.201 -15.8875C207.785 -2.12135 188.303 10.0514 167.834 20.5813C150.437 29.5343 133.78 39.6536 118.502 51.9413C105.59 62.3234 95.0933 74.6276 88.5224 89.9872C80.8179 107.992 74.4933 126.407 72.2428 146.038C71.0929 156.075 69.4337 166.063 67.8238 176.051C66.526 184.116 64.5547 192.002 61.9428 199.673C61.4335 199.279 60.9243 198.868 60.3986 198.474C62.912 190.999 64.8012 183.311 66.0332 175.426C67.6431 165.208 69.3351 154.991 70.5508 144.723C72.8835 124.846 79.3559 106.218 87.3889 88.1145C93.4342 74.4962 102.436 63.0134 113.952 53.3705C129.558 40.3107 146.577 29.5179 164.598 20.2364C184.245 10.1171 203.038 -1.38211 220.944 -14.2941C234.792 -24.282 247.343 -35.7154 258.152 -49.0052C264.509 -56.8247 270.932 -64.6113 276.797 -72.9071C275.713 -71.8722 274.612 -70.8537 273.544 -69.7859C267.893 -64.0527 262.341 -58.221 256.608 -52.5864C244.468 -40.6437 231.737 -29.4073 217.56 -19.8794C206.044 -12.1256 193.806 -5.94894 180.467 -1.95708C166.766 2.13335 153.706 7.75153 141.222 14.7332C121.854 25.5424 105.525 39.8179 92.7442 57.9537C83.052 71.6871 77.1381 87.0303 74.7726 103.721C73.5405 112.378 72.2921 121.019 70.8136 129.627C67.6267 148.075 62.2385 165.8 53.6469 182.523C52.3656 185.003 51.0185 187.451 49.6222 189.85C49.1458 189.455 48.6858 189.077 48.2094 188.683C56.9324 173.701 62.9777 157.619 66.7067 140.633C68.4316 132.781 69.6308 124.813 70.9614 116.879C72.4399 108.041 73.8198 99.1866 75.1669 90.3158C78.2552 69.8801 86.7482 51.662 98.2967 34.7911C103.093 27.793 108.35 21.0413 114.051 14.7661C124.006 3.82538 135.883 -4.88116 148.548 -12.5035C162.364 -20.8158 176.836 -27.7646 191.949 -33.4156C204.878 -38.2617 217.478 -43.7649 229.519 -50.5822C246.439 -60.1595 260.025 -73.3178 271.557 -88.776C274.004 -92.0615 276.239 -95.4948 279.212 -99.7988C276.239 -99.0432 275.351 -97.4825 274.251 -96.2998C265.265 -86.7226 255.737 -77.7861 244.977 -70.1802C235.531 -63.4942 225.461 -58.0732 214.554 -54.2291C206.323 -51.3215 197.995 -48.6767 189.715 -45.884C178.824 -42.2043 168.195 -37.8674 157.797 -32.9392C137.378 -23.247 119.899 -9.71082 104.736 7.0123C95.5533 17.1645 87.6024 28.0887 82.5263 40.8199C76.8917 54.9311 72.2099 69.3215 70.9614 84.6483C70.2058 93.7984 69.2201 102.965 67.7909 112.033C65.294 127.984 61.1543 143.491 54.4026 158.243C50.5257 166.72 45.3511 174.276 39.5029 181.406C39.0594 181.028 38.6158 180.65 38.1723 180.272C47.6673 169.102 54.1726 156.239 58.7066 142.292C63.6184 127.146 66.5589 111.589 68.1195 95.7533C68.4645 92.3199 68.793 88.8866 69.0723 85.4533C70.6493 66.151 76.6782 48.163 85.204 30.9306C89.623 21.9941 95.8654 14.3061 102.354 6.84802C121.624 -15.2962 145.443 -30.9186 172.68 -41.465C182.323 -45.194 192.196 -48.2824 201.904 -51.8307C209.888 -54.7384 217.888 -57.6296 225.691 -60.9644C235.696 -65.2355 244.353 -71.7572 252.862 -78.4431C253.864 -79.2317 254.604 -80.3323 254.981 -81.8929C252.862 -80.5952 250.694 -79.3631 248.624 -77.9668C233.971 -68.1267 218.102 -61.0958 200.968 -56.8575C199.178 -56.414 197.403 -55.9376 195.596 -55.5762C173.321 -51.1244 153.394 -41.0872 134.979 -28.4217C99.1345 -3.78053 76.3168 29.9943 67.8074 72.8863C65.7211 83.4655 64.5876 94.2419 63.3555 104.969C61.6142 120.066 57.3924 134.259 48.6201 146.793C42.3777 155.697 35.4289 163.861 27.5437 171.007C27.0345 170.564 26.5417 170.104 26.0324 169.66C29.285 166.687 32.4063 163.549 35.4125 160.264C41.3264 153.808 46.7638 147.007 51.0678 139.335C55.8318 130.809 58.8544 121.709 60.3329 112.082C60.4643 111.211 60.3329 110.275 60.2836 109.388C60.2836 109.289 59.9879 109.207 59.4294 108.879C59.0187 109.93 58.5423 110.899 58.2795 111.918C53.5812 129.758 43.1005 143.803 29.9257 156.058C26.7717 158.982 23.5355 161.808 20.1678 164.486C19.6914 164.058 19.2315 163.615 18.7551 163.188C25.0468 158.177 30.8949 152.658 36.431 146.744C48.9323 133.388 56.5053 117.75 58.723 99.5808C59.298 94.8333 59.6594 90.0529 60.1358 85.174C57.6716 85.2397 58.0002 87.0139 57.7209 88.1145C55.0268 98.4473 50.6243 108.008 44.7104 116.863C38.0409 126.867 29.975 135.688 20.9235 143.557C16.8988 147.04 12.7591 150.358 8.48793 153.512C8.35651 153.381 8.20867 153.249 8.07725 153.118C7.76513 152.822 7.453 152.51 7.15731 152.214C9.49001 150.489 11.7734 148.715 14.0075 146.859C28.1351 135.228 40.7021 122.234 49.0472 105.692C50.3779 103.063 52.1027 100.534 52.1192 97.051C51.4128 97.6588 50.7557 97.9545 50.4929 98.4638C40.39 117.322 25.6217 131.959 8.52078 144.362C6.71377 145.676 4.89032 146.941 3.03403 148.19C2.59048 147.762 2.16337 147.335 1.71983 146.892C2.49192 146.366 3.26401 145.857 4.01967 145.331C14.6318 137.988 24.5047 129.742 33.0962 120.049C40.1436 112.099 46.1232 103.408 50.6243 93.7655C51.3635 92.1721 52.5463 90.4636 50.7393 88.7552C50.92 88.5909 51.0842 88.4266 51.2649 88.2788C51.0842 88.4102 50.8871 88.5416 50.7064 88.673C49.0472 91.9257 47.6181 95.3261 45.6796 98.3981C33.6712 117.569 17.9666 132.715 -1.36853 143.82C-2.12419 143.064 -2.87984 142.292 -3.63551 141.536C-3.52052 141.339 -3.40553 141.159 -3.27411 140.962C-1.07283 141.799 0.0770874 140.518 1.06273 138.941C-0.415733 139.582 -1.8942 140.239 -3.37267 140.879C-3.47123 141.093 -3.5698 141.29 -3.66837 141.504C-4.16119 141.011 -4.63758 140.518 -5.13041 140.025C-4.68686 139.746 -4.24332 139.45 -3.79978 139.171C11.3627 129.265 24.5211 117.207 35.8396 103.162C43.2484 93.9791 48.7844 83.6627 52.3984 72.3935C52.9406 70.7014 54.0083 68.9601 52.2999 67.3009C52.3656 67.2517 52.4149 67.2188 52.4806 67.1695C52.4149 67.1695 52.3327 67.1695 52.2506 67.1695C49.3265 75.2025 44.6611 82.2992 40.2586 89.5273C33.7862 100.139 26.5252 110.144 16.9809 118.292C8.99718 125.109 0.602768 131.401 -8.62945 136.444C-9.05656 136 -9.48367 135.573 -9.91079 135.13C0.997025 128.92 11.0342 121.479 20.1843 112.838C23.8311 109.388 27.1988 105.528 30.0243 101.388C35.4453 93.437 40.4721 85.2233 45.4496 76.9931C46.4024 75.4161 48.1273 73.5598 46.4846 71.3257C46.731 70.9971 46.9938 70.6686 47.2402 70.3565C46.9774 70.6521 46.7146 70.9478 46.4353 71.2435C44.1354 74.9233 42.0656 78.7673 39.5522 82.2828C25.441 101.963 8.40579 118.44 -14.0012 128.427C-14.5269 128.657 -15.069 128.904 -15.5947 129.134C-16.0218 128.674 -16.4653 128.214 -16.8924 127.754C-3.43838 121.709 8.78363 113.61 19.5107 102.883C35.9874 86.4061 48.5873 67.3995 57.5567 45.9617C63.602 31.522 70.5015 17.5423 78.9452 4.35107C86.8139 -7.95308 96.6047 -18.5323 107.874 -27.781C109.796 -29.358 111.915 -30.7051 113.936 -32.1671C115.825 -33.5963 117.714 -35.0255 119.587 -36.4547C120.408 -37.2268 121.229 -37.9824 122.051 -38.7545C121.952 -38.8695 121.854 -38.9681 121.739 -39.0666C121.016 -38.196 120.293 -37.3253 119.57 -36.4547C118.174 -36.9146 116.909 -36.7011 116.022 -35.5019C115.25 -34.4505 114.642 -33.2842 113.952 -32.1671C113.081 -32.2493 111.997 -32.7256 111.389 -32.3807C109.402 -31.2472 107.529 -29.8837 105.738 -28.4709C92.8921 -18.2531 81.3929 -6.8853 72.9163 7.42299C67.5281 16.5402 62.6492 25.8874 57.8852 35.3003C46.9774 56.8038 33.0141 76.0732 15.9296 93.0263C4.61106 104.312 -7.62737 114.497 -20.7857 123.532C-21.2129 123.056 -21.6564 122.596 -22.0835 122.119C-13.4427 116.14 -5.11398 109.749 2.82047 102.768C15.9624 91.1864 27.8394 78.4552 38.1394 64.2947C50.0658 47.8673 59.0516 29.7971 67.5938 11.4806C72.4563 1.04915 77.8445 -9.05373 85.2204 -17.9738C89.9023 -23.6413 94.6662 -29.2266 99.348 -34.8776C105.82 -42.7135 113.426 -49.3502 121.328 -55.6419C135.768 -67.1082 151.637 -76.3076 168.13 -84.4556C170.298 -85.5234 172.286 -86.9197 174.356 -88.1846C173.781 -88.2832 173.14 -88.5296 172.696 -88.3325C164.072 -84.5706 155.283 -81.2358 147.103 -76.439C133.747 -68.6196 121.443 -59.4038 110.075 -48.9888C103.833 -43.2556 98.0503 -36.9475 92.4649 -30.5408C87.0439 -24.3148 82.0828 -17.6617 77.0232 -11.1236C71.1257 -3.48482 65.4582 4.31821 60.5793 12.6798C52.497 26.5774 45.0225 40.8199 35.9546 54.1426C25.5725 69.4037 14.3854 83.9255 0.307072 95.9997C-8.49803 103.556 -18.0916 109.947 -28.6216 114.858C-28.9995 114.431 -29.3773 114.004 -29.7551 113.577C-28.6873 112.936 -27.5374 112.427 -26.4532 111.852C-24.0219 110.571 -21.6071 109.207 -19.2416 107.811C-17.0731 106.53 -14.9212 105.183 -12.8349 103.77C-10.5515 102.226 -8.31733 100.616 -6.13248 98.9238C-4.12833 97.3796 -2.17347 95.7697 -0.267887 94.1105C1.8184 92.3035 3.88826 90.4801 5.87597 88.5745C7.69942 86.8167 9.45715 84.9933 11.1492 83.1206C12.8576 81.1986 14.9275 79.5065 15.6667 76.7796C13.6954 77.5845 12.0363 78.7016 10.4428 79.9008C2.7219 85.6832 -4.769 91.7778 -12.7199 97.2317C-19.3401 101.766 -26.2232 105.873 -33.3363 109.487C-33.7963 108.961 -34.2562 108.435 -34.6998 107.893C-32.2521 106.677 -29.8208 105.413 -27.4388 104.082C-22.2314 101.174 -17.1389 98.0202 -12.1778 94.7019C-7.21669 91.3836 -2.35417 87.8845 2.34407 84.2048C6.86162 80.6893 11.1985 76.911 15.4367 73.0341C19.8229 69.0258 23.9461 64.7383 27.1331 59.5801C17.5723 67.7116 8.02797 75.8268 -2.27203 82.9892C-12.6542 90.2172 -23.5291 96.6403 -34.6998 102.571C-35.784 103.146 -36.8353 103.704 -37.8538 104.23C-38.2645 103.753 -38.6752 103.277 -39.0695 102.801C-29.0652 97.7574 -16.5146 90.5293 -7.39739 84.3362C8.71791 73.3955 24.8661 59.4979 29.2522 51.4485C28.5294 51.9413 27.7244 52.3356 27.1002 52.927C8.15938 71.0464 -14.0505 84.2869 -37.1639 96.1804C-38.9052 97.0839 -40.6629 97.9381 -42.4371 98.7759C-42.9299 98.1845 -43.4227 97.5931 -43.9156 96.9853C-37.0982 94.6362 -25.9604 88.7059 -10.7486 79.3587C8.09367 67.7774 27.938 51.7442 36.0696 39.9C30.665 44.1219 25.2932 48.393 19.8393 52.5656C2.26194 66.036 -16.6625 77.3053 -36.7039 86.6689C-40.6301 88.5088 -43.6527 91.055 -45.9033 94.5541C-46.3468 94.012 -46.7739 93.4863 -47.2175 92.9442C-46.9382 92.2049 -46.7739 91.4657 -46.7739 90.6772C-43.8663 87.6874 -41.3529 85.3876 -39.1516 82.8084C-28.0467 69.7158 -15.4304 58.4794 0.0278053 50.6928M178.791 -76.4554C177.69 -75.3055 176.59 -74.1392 175.473 -72.9893C177.51 -73.1864 178.249 -74.7141 178.791 -76.4554ZM171.908 -72.1186C172.007 -72.4143 172.105 -72.71 172.187 -73.0221C172.417 -73.0221 172.647 -73.0221 172.877 -73.0221C172.581 -73.055 172.286 -73.0878 171.99 -73.1371C171.957 -72.8086 171.941 -72.4636 171.908 -72.135M199.177 -74.747C199.292 -75.0098 199.407 -75.2727 199.522 -75.5519C200.344 -74.7634 201.182 -74.402 202.069 -75.3384C201.165 -75.4534 200.245 -75.5519 199.342 -75.6669C199.292 -75.3548 199.243 -75.0591 199.177 -74.747ZM89.1794 58.808C89.3602 58.7423 89.5901 58.7094 89.6887 58.578C89.7873 58.463 89.738 58.2166 89.738 58.0359C89.5408 58.2987 89.3602 58.5451 89.163 58.808M92.005 53.4198C95.2083 51.8099 96.3089 49.9865 97.6724 48.4915C99.1837 46.816 100.613 45.0582 102.059 43.3169C98.6416 45.9289 95.6354 48.9515 92.005 53.4198ZM215.211 -40.9722C205.863 -37.1939 196.566 -33.3006 187.202 -29.5551C169.05 -22.2778 151.817 -13.292 135.866 -1.90778C127.242 4.2525 119.504 11.382 112.49 19.3165C111.882 19.99 111.406 20.7785 110.913 21.5506C110.814 21.6984 110.88 21.9613 110.831 22.7498C112.917 21.2713 114.823 20.0885 116.515 18.6758C133.008 4.92603 151.637 -5.37398 170.594 -15.1976C183.407 -21.8343 196.221 -28.5038 209.001 -35.2226C212.204 -36.8982 215.244 -38.8859 218.053 -41.5636C217.1 -41.3829 216.081 -41.35 215.211 -40.9886M64.719 74.2333L65.1297 73.9869L64.8012 73.7734L64.719 74.2498V74.2333ZM1.29272 138.777C2.47549 139.335 3.34615 138.612 4.29894 138.021C13.1862 132.6 21.0056 125.832 28.0201 118.193C32.8334 112.953 37.5316 107.597 41.2771 101.47C42.0327 100.238 42.3777 99.1373 42.0327 97.8067C34.854 108.813 25.7532 118.012 15.9296 126.522C11.1163 130.711 6.17167 134.703 1.29272 138.777ZM42.3777 97.3303C43.2155 96.7225 44.0697 96.1311 44.9075 95.5233C44.7104 95.3097 44.5133 95.1126 44.3161 94.899C43.6755 95.704 43.0184 96.5253 42.3777 97.3303ZM128.03 -42.7792C128.014 -42.9271 127.981 -43.0913 127.948 -43.2392C127.767 -43.1735 127.439 -43.1078 127.439 -43.0421C127.439 -42.8121 127.554 -42.5821 127.62 -42.3521C127.751 -42.4835 127.882 -42.6314 128.014 -42.7628M141.911 -49.8266C141.911 -49.8266 141.747 -49.7609 141.682 -49.7116C140.022 -49.7116 138.938 -48.611 137.805 -47.6089C136.507 -46.9518 135.209 -46.2947 133.911 -45.6376C133.386 -45.7033 132.86 -45.769 132.334 -45.8347C132.334 -45.8019 132.334 -45.7526 132.334 -45.7197C132.876 -45.6869 133.402 -45.654 133.944 -45.6212C135.242 -46.2783 136.523 -46.9518 137.821 -47.6089C139.152 -48.2824 140.466 -48.9559 141.796 -49.6295C141.829 -49.6952 141.862 -49.7609 141.895 -49.843M148.696 -52.7342C148.696 -52.7342 148.581 -52.7014 148.532 -52.6685C148.565 -52.6685 148.597 -52.6357 148.614 -52.6193C148.647 -52.6521 148.663 -52.7014 148.696 -52.7342ZM153.838 -56.3811L153.657 -55.8062L154.216 -56.069L153.838 -56.3811ZM47.6509 90.2501L47.7659 89.6915L47.2731 90.0037L47.6509 90.2501ZM49.6715 86.1104L49.7701 85.6668L49.3594 85.9132L49.6715 86.1268V86.1104ZM69.3187 50.2986C67.7088 55.3089 66.6739 60.5 65.4418 65.6418C65.1954 66.6767 65.294 67.7774 65.2283 68.8616C65.6389 68.8616 66.0332 68.878 66.4439 68.8944C66.9367 67.1367 67.446 65.3789 67.9059 63.6048C76.3004 30.7335 93.8613 3.57896 119.274 -18.6802C132.006 -29.818 146.462 -38.1631 161.526 -45.654C172.516 -51.1244 184.031 -54.8698 195.974 -57.4818C209.28 -60.3894 222.028 -64.8905 234.053 -71.3465C237.256 -73.0714 240.345 -75.0262 243.219 -77.6053C242.086 -77.2768 240.887 -77.0961 239.819 -76.6033C220.582 -67.6503 200.557 -61.0629 180.007 -55.8883C165.238 -52.1593 151.242 -46.4097 138.33 -38.1795C118.256 -25.3826 101.861 -8.93872 88.7852 10.922C80.6536 23.259 73.8034 36.2038 69.2858 50.2986M68.3659 43.7769C68.6287 43.859 68.8916 43.9576 69.1544 44.0397C70.2715 41.6085 71.4378 39.1936 72.5056 36.7459C81.4914 16.3266 93.9763 -1.77635 109.697 -17.5138C128.885 -36.7339 151.489 -50.3523 177.92 -57.2846C182.569 -58.5003 187.202 -59.8309 191.802 -61.0958C191.719 -62.8535 190.586 -62.5086 189.797 -62.4264C171.3 -60.3073 153.92 -54.5906 137.723 -45.4898C133.353 -43.0257 129.345 -39.8387 125.402 -36.7011C117.303 -30.2615 109.632 -23.3949 102.946 -15.3947C94.9783 -5.86679 87.1096 3.69397 80.8015 14.4375C76.2675 22.1913 72.4071 30.2571 69.4994 38.7501C68.9409 40.36 68.7273 42.1013 68.3659 43.7769ZM67.5938 37.1566C68.0538 36.8938 68.5138 36.6474 68.9573 36.3846C68.9573 36.3846 68.9573 36.3681 68.9573 36.3517C68.4809 36.5981 68.0045 36.8445 67.5445 37.0909C67.5445 37.1238 67.5774 37.1402 67.5774 37.1731M107.94 -24.1998C105.804 -22.787 104.638 -22.1792 103.668 -21.325C87.931 -7.73953 76.3496 8.75362 69.138 28.2694C68.4316 30.1914 67.9224 32.212 67.6431 34.2161C67.561 34.8404 68.4973 35.6124 68.9737 36.3188C69.6965 33.9533 70.1893 31.5056 71.175 29.255C76.4318 17.2466 83.0849 6.05951 91.3643 -4.12549C96.5554 -10.5158 101.845 -16.8239 107.94 -24.2162M228.336 -116.029C227.088 -114.534 225.823 -113.056 224.574 -111.561C226.02 -112.875 227.466 -114.173 228.928 -115.487C228.73 -115.668 228.533 -115.848 228.353 -116.029M166.783 -81.6794C151.686 -74.3363 137.328 -65.6955 123.989 -55.4941C117.238 -50.3358 110.749 -44.8162 105.114 -38.4095C104.128 -37.2924 103.241 -36.0768 102.781 -34.4834C108.17 -38.7052 113.558 -42.9435 118.946 -47.1489C135.653 -60.1923 153.723 -71.0344 172.466 -80.858C184.459 -87.1333 196.27 -93.77 207.983 -100.538C213.716 -103.856 219.038 -107.848 224.558 -111.544C223.49 -111.347 222.225 -111.446 221.371 -110.904C203.925 -99.766 185.378 -90.7144 166.799 -81.6794M174.668 -88.3489C175.703 -88.6282 176.82 -88.776 177.773 -89.236C192.393 -96.3983 206.981 -103.61 220.418 -112.875C223.769 -115.191 227.071 -117.623 229.618 -121.039C227.712 -119.939 225.757 -118.937 223.934 -117.738C209.74 -108.456 195.284 -99.6017 180.072 -92.0451C178.118 -91.0759 175.851 -90.4516 174.684 -88.3325M-35.6197 83.6134C-34.4041 83.2027 -33.1227 82.9399 -31.9892 82.3813C-16.0546 74.6112 -0.941406 65.4939 13.4162 55.1118C25.5396 46.356 36.9895 36.8116 47.2238 25.871C52.5791 20.1542 57.2774 13.994 61.6307 7.45586C67.216 -0.938568 73.3598 -8.98799 79.3723 -17.1031C82.3785 -21.1607 85.6147 -25.054 88.7852 -28.9802C98.0502 -40.463 108.531 -50.7301 120.047 -59.9623C120.556 -60.373 120.901 -60.9973 121.755 -62.0815C119.176 -61.8022 117.599 -60.718 116.005 -59.6502C107.217 -53.7527 99.0523 -47.0339 91.3807 -39.7566C77.8445 -26.9268 65.6554 -12.8977 54.5997 2.13336C52.5627 4.90959 50.8871 7.93224 48.9323 10.7578C45.1375 16.2117 41.4413 21.7641 37.3345 27.0045C31.7492 34.1504 24.8168 39.785 16.8166 44.0562C10.5414 47.4073 4.20037 50.6271 -2.09133 53.9455C-15.4961 61.0092 -26.3875 71.0793 -35.6197 83.6134Z" fill="white"/>
<path d="M127.784 160.182C135.423 138.153 148.844 120.033 166.897 105.396C173.666 99.9095 180.795 94.8498 187.826 89.6916C204.336 77.601 217.888 62.8327 228.714 45.4361C236.238 33.3291 242.841 20.7293 249.462 8.12943C254.16 -0.823517 259.4 -9.43152 265.38 -17.6124C273.84 -29.1773 284.009 -39.1487 294.473 -48.8245C304.839 -58.4017 314.761 -68.3895 323.927 -79.0838C324.436 -78.7881 324.946 -78.4924 325.455 -78.1803C313.2 -64.1677 299.812 -51.2229 286.325 -38.3931C283.171 -35.3868 280.165 -32.1999 277.191 -29.013C265.988 -16.9717 257.298 -3.20551 249.823 11.382C243.121 24.4747 236.205 37.4524 228.09 49.7401C221.108 60.3193 213.404 70.3237 203.908 78.8167C195.843 86.0283 187.235 92.5335 178.479 98.8745C166.355 107.663 154.758 117.027 146.133 129.561C139.464 139.253 133.156 149.126 129.64 160.445C126.716 169.874 124.285 179.451 121.689 188.995C121.443 189.899 120.851 191.082 122.428 191.969C123.069 190.671 123.71 189.488 124.268 188.273C130.806 173.816 138.166 159.787 146.757 146.432C154.38 134.588 162.873 123.466 174.093 114.727C180.614 109.651 187.333 104.805 193.723 99.5645C199.572 94.7513 205.551 89.9709 210.627 84.402C218.989 75.219 226.118 65.0176 231.72 53.8469C235.63 46.0439 239.474 38.208 243.334 30.3722C247.096 22.7334 251.154 15.2589 256.148 8.35941C264.493 -3.18906 272.427 -15.0333 281.84 -25.7768C288.805 -33.7277 295.508 -41.9249 302.687 -49.6787C307.516 -54.9026 313.085 -59.4202 318.128 -64.447C321.907 -68.2253 325.669 -72.0528 329.398 -75.8804C330.153 -75.4533 330.909 -75.0262 331.665 -74.6155C331.352 -74.172 331.237 -73.6135 331.599 -72.7921C332.026 -73.1699 332.47 -73.5477 332.897 -73.9256C333.504 -73.597 334.112 -73.2685 334.704 -72.9399C334.687 -72.9235 334.671 -72.9071 334.654 -72.8907C333.225 -71.675 331.5 -70.6894 330.646 -68.1924C332.223 -68.9152 333.324 -69.2766 334.277 -69.8844C335.213 -70.4758 336.133 -71.0836 337.069 -71.675C337.677 -71.3465 338.285 -71.0343 338.876 -70.7222C327.459 -63.2149 316.108 -55.5761 305.611 -46.7875C297.134 -39.6744 289.479 -31.7892 283.138 -22.6556C278.226 -15.5918 274.76 -7.85443 272.969 0.539978C271.146 9.0658 269.717 17.6902 268.189 26.2817C268.058 27.021 268.37 27.8423 268.55 28.6473C269.29 27.3495 270.21 26.1175 270.637 24.7211C275.68 8.49084 283.811 -6.08029 294.67 -19.0908C298.481 -23.6577 302.818 -27.8302 307.188 -31.8878C317.307 -41.235 327.738 -50.2701 337.792 -59.683C340.453 -62.18 343.032 -64.7426 345.579 -67.3382C346.104 -67.0918 346.614 -66.8453 347.139 -66.5989C343.558 -62.9028 339.96 -59.2394 336.264 -55.6747C329.151 -48.8409 321.742 -42.2863 314.251 -35.8797C297.775 -21.7849 284.239 -5.4725 276.255 14.8811C273.413 22.1256 271.442 29.7151 269.142 37.1567C268.6 38.898 268.123 40.7871 269.963 42.1999C270.357 40.4422 270.538 38.5859 271.195 36.9267C277.881 20.1872 286.128 4.36755 298.711 -8.80725C304.74 -15.1154 310.736 -21.4564 316.831 -27.6988C324.699 -35.7482 332.683 -43.6827 340.535 -51.7486C344.462 -55.7733 347.977 -60.143 351.312 -64.6277C353.447 -63.642 355.599 -62.6892 357.751 -61.7529C353.743 -55.6418 349.8 -49.498 345.595 -43.5184C331.55 -23.5755 315.237 -5.47247 298.81 12.4663C290.81 21.2057 284.14 30.7007 279.097 41.3457C274.579 50.8572 270.341 60.5001 265.774 70.5208C268.698 70.0608 269.208 67.9581 270.078 66.5125C274.941 58.4631 279.885 50.4465 284.321 42.1506C293.504 25.0332 305.167 9.73932 318.326 -4.45398C332.256 -19.4851 344.889 -35.4854 355.419 -53.0956C356.946 -55.6418 358.343 -58.2702 359.673 -60.9479C362.088 -59.9294 364.536 -58.9273 366.967 -57.9745C364.306 -52.0114 361.382 -46.1468 358.261 -40.3479C347.106 -19.6165 333.34 -0.675659 318.9 17.8052C304.888 35.7275 290.711 53.5348 276.731 71.4736C261.585 90.9072 248.098 111.441 236.648 133.274C226.48 152.674 218.069 172.765 212.861 194.121C212.171 196.963 211.629 199.837 210.923 203.123C213.486 201.907 213.354 199.788 213.913 198.178C218.595 184.708 223.638 171.402 229.765 158.523C241.117 134.686 256.181 113.331 273.512 93.5192C284.107 81.4122 295.13 69.683 305.775 57.5924C310.933 51.7278 315.779 45.584 320.478 39.358C326.457 31.4564 331.205 22.7498 335.492 13.8626C345.381 -6.60599 354.959 -27.2388 364.832 -47.7403C366.326 -50.8615 367.871 -53.9662 369.431 -57.0546C369.94 -56.8575 370.45 -56.6768 370.959 -56.4796C369.793 -54.0812 368.659 -51.6664 367.509 -49.2516C358.392 -29.9329 349.439 -10.5321 340.207 8.73724C331.122 27.6945 320.001 45.239 305.43 60.6315C293.422 73.3134 282.004 86.5704 270.637 99.8273C259.86 112.394 249.971 125.651 241.708 140.075C235.646 150.654 229.913 161.381 225.494 172.765C224.886 174.342 223.671 175.919 224.508 177.808C227.301 175.311 228.287 171.697 230.028 168.56C239.047 152.412 250.628 138.185 262.817 124.403C276.058 109.437 289.348 94.5048 302.489 79.4573C312.182 68.3524 320.543 56.2946 328.067 43.6291C336.774 28.9758 343.246 13.2712 349.866 -2.40054C354.597 -13.6041 359.394 -24.7911 364.585 -35.7975C367.706 -42.4013 371.189 -48.7916 374.967 -54.9848C375.575 -54.7712 376.183 -54.5576 376.791 -54.3441C369.448 -42.2699 363.189 -29.5551 357.686 -16.4296C356.881 -14.4911 356.437 -12.3884 355.846 -10.335C356.667 -11.2385 357.604 -12.0763 358.146 -13.1112C361.267 -18.9922 364.372 -24.8897 367.296 -30.8693C371.09 -38.623 375.296 -46.0975 380.076 -53.2106C382.048 -52.5535 384.019 -51.8964 386.007 -51.2886C384.922 -49.3337 383.855 -47.3624 382.852 -45.3583C377.448 -34.5819 373.916 -23.2469 372.29 -11.2714C369.908 6.28955 366.195 23.5876 361.562 40.705C355.353 63.6541 344.839 84.4512 330.334 103.179C321.89 114.07 312.822 124.485 303.902 134.998C295.13 145.364 286.867 156.075 279.935 167.788C271.885 181.422 267.959 196.043 268.435 211.879C268.518 214.409 268.55 216.938 268.665 219.468C269.372 235.846 268.633 252.11 265.396 268.208C264.756 271.362 264.411 274.566 263.934 277.753C262.554 287.018 264.575 295.577 269.306 303.56C270.587 305.729 271.951 307.864 273.446 309.901C273.643 310.164 273.84 310.427 274.021 310.69C273.052 310.394 272.082 310.082 271.113 309.786C269.372 307.273 267.614 304.727 265.84 302.148C266.037 304.924 265.988 306.254 266.267 307.519C266.316 307.782 266.382 308.029 266.431 308.291C265.051 307.848 263.688 307.404 262.308 306.944C259.17 294.114 255.901 281.301 252.567 268.521C250.415 260.29 248.706 251.962 246.948 243.633C242.414 222.146 244.304 201.185 251.532 180.47C260.435 154.908 274.152 132.288 292.107 112.181C298.087 105.495 304.494 99.2195 310.572 92.6157C323.434 78.6195 333.849 63.0135 340.979 45.3211C346.055 32.7213 350.228 19.8422 353.612 6.68381C353.891 5.61603 354.006 4.51538 354.334 2.67551C351.69 5.22177 351.147 7.96518 350.113 10.3964C346.154 19.6943 342.572 29.1729 338.383 38.3559C327.837 61.5186 314.317 82.7592 296.477 101.092C289.265 108.501 281.955 115.844 274.842 123.351C272 126.341 269.273 129.495 266.941 132.896C257.643 146.432 250.53 161.102 245.716 176.79C240.049 195.287 238.028 214.146 241.609 233.333C243.219 241.925 244.731 250.533 246.833 259.009C250.48 273.662 250.661 288.003 248.443 302.164C247.852 301.95 247.26 301.737 246.653 301.523C248.887 286.492 248.378 271.346 244.271 255.986C242.086 247.789 240.854 239.329 239.359 230.951C237.338 219.518 237.634 208.068 239.342 196.601C240.706 187.468 242.924 178.58 245.946 169.857C246.57 168.067 246.883 166.161 247.326 164.289C246.488 165.176 245.503 165.997 244.961 167.048C235.991 184.363 230.997 202.466 234.086 222.179C235.482 231.033 236.517 239.937 238.143 248.742C241.232 265.564 241.593 282.172 238.587 298.55C237.979 298.32 237.388 298.106 236.78 297.876C238.57 288.726 239.359 279.428 238.685 269.917C237.568 254.327 234.513 239.017 232.18 223.608C232.131 223.296 231.638 223.049 230.866 222.31C230.751 224.002 230.521 225.267 230.619 226.499C231.145 232.43 231.72 238.376 232.361 244.307C233.018 250.467 233.856 256.611 234.431 262.771C235.498 274.139 235.055 285.392 233.067 296.48C232.476 296.25 231.884 296.02 231.309 295.807C233.1 285.901 233.511 275.896 232.804 265.81C232.492 261.457 232.098 257.12 231.556 252.8C230.11 241.218 228.385 229.67 228.5 217.99C226.693 217.711 226.841 218.975 226.808 219.665C226.562 225.859 226.118 232.052 226.299 238.228C226.496 245.555 226.956 252.915 227.827 260.192C229.207 271.773 230.028 283.338 229.026 294.919C228.402 294.673 227.794 294.443 227.186 294.197C227.925 285.999 227.794 277.769 226.94 269.523C226.118 261.539 225.281 253.539 224.706 245.522C223.621 230.327 224.476 215.246 227.893 200.347C228.205 199 228.155 197.587 228.205 196.191C227.235 198.03 226.102 199.821 225.461 201.759C219.317 220.437 215.786 239.526 216.443 259.288C216.804 269.933 217.658 280.513 219.268 291.026C218.02 290.517 216.755 289.991 215.506 289.466C214.849 287.051 214.241 284.636 213.716 282.188C209.56 262.722 208.196 243.091 211.186 223.279C211.465 221.374 211.284 219.386 211.284 217.448C209.428 219.337 209.477 221.932 208.985 224.265C205.288 242.122 203.777 260.192 203.761 278.393C203.761 280.414 203.761 282.435 203.777 284.439C203.153 284.159 202.529 283.897 201.888 283.617C201.888 282.747 201.871 281.876 201.871 281.005C201.871 278.246 201.871 275.486 201.921 272.726C201.986 269.966 202.184 267.206 202.216 264.463C202.249 261.867 202.906 259.223 201.74 255.066C200.837 258.516 200.344 260.455 199.834 262.377C198.192 268.422 196.648 274.484 195.005 280.529C194.528 280.315 194.036 280.085 193.559 279.855C198.8 261.391 201.855 242.483 204.779 223.542C204.911 222.622 204.566 221.637 204.368 220.684C203.679 222.228 202.824 223.739 202.479 225.349C201.412 230.278 200.426 235.239 199.687 240.216C197.765 253.243 194.512 265.876 189.617 278.016C189.058 277.753 188.5 277.49 187.957 277.227C192.13 266.796 195.333 256.036 196.976 244.898C198.668 233.53 200.935 222.343 204.401 211.37C204.976 209.563 206.241 207.608 204.319 205.85C201.756 211.945 199.358 218.072 196.795 224.134C192.13 235.173 188.943 246.606 187.432 258.516C186.693 264.282 185.74 270.032 184.886 275.781C183.933 275.322 182.98 274.878 182.027 274.418C182.044 272.693 182.06 270.968 182.011 269.243C181.534 252.192 185.116 235.863 191.407 220.175C195.843 209.103 200.984 198.31 205.913 187.451C208.377 182.014 211.087 176.691 213.634 171.303C214.093 170.317 214.34 169.233 214.668 168.198C214.455 168.083 214.241 167.968 214.028 167.853C213.141 169.052 212.188 170.186 211.383 171.434C204.993 181.242 198.701 191.115 192.245 200.889C182.06 216.331 177.444 233.481 177.312 251.748C177.263 258.763 178.002 265.794 178.676 272.808C177.46 272.2 176.228 271.609 175.013 271.001C173.485 264.118 172.039 257.218 170.495 250.335C168.064 239.46 169.23 228.93 173.238 218.598C178.167 205.916 184.623 194.055 192.738 183.147C198.208 175.788 204.138 168.773 209.707 161.479C213.732 156.19 217.494 150.703 221.371 145.315C222.094 144.296 222.356 143.278 221.584 142.177C221.913 141.914 222.242 141.652 222.554 141.389C222.225 141.635 221.913 141.882 221.584 142.144C216.344 147.943 211.054 153.676 205.863 159.525C196.105 170.531 186.348 181.521 178.134 193.759C172.614 201.989 167.604 210.482 164.778 220.06C161.246 232.002 158.914 244.175 158.634 256.66C158.585 258.631 158.585 260.603 158.602 262.557C157.945 262.212 157.287 261.851 156.63 261.506C156.844 248.413 158.454 235.452 162.084 222.672C164.236 215.115 167.193 207.936 171.251 201.201C178.873 188.568 187.842 176.954 197.682 165.997C205.058 157.8 212.352 149.537 219.662 141.274C220.845 139.943 221.913 138.514 223.046 137.134C220.221 137.709 218.71 139.762 216.985 141.487C208.229 150.276 199.49 159.081 190.783 167.935C187.727 171.04 184.738 174.227 181.846 177.496C168.918 192.067 160.442 208.938 156.318 227.945C155.004 233.99 154.035 240.15 153.296 246.294C152.786 250.565 152.425 254.837 152.195 259.091C151.587 258.763 150.996 258.434 150.388 258.106C150.881 249.103 151.981 240.101 153.69 231.099C156.203 217.875 160.852 205.472 167.653 193.874C172.319 185.923 177.772 178.564 184.245 171.96C197.108 158.818 209.888 145.627 222.652 132.403C235.367 119.245 245.437 104.181 253.536 87.8353C257.577 79.6873 261.355 71.3586 263.228 62.3564C261.832 63.1777 261.355 64.6234 260.813 66.0361C255.901 78.7181 249.248 90.513 242.152 102.061C236.484 111.277 230.176 120.033 222.636 127.82C215.753 134.916 208.902 142.046 201.724 148.814C188.96 160.839 177.756 174.145 167.867 188.634C156.926 204.667 149.698 222.113 147.776 241.514C147.3 246.327 146.889 251.157 146.61 255.986C146.002 255.641 145.394 255.296 144.786 254.968C145.098 248.955 145.64 242.943 146.478 236.963C148.564 222.244 153.575 208.495 161.246 195.731C171.727 178.301 184.541 162.728 199.161 148.633C205.108 142.9 211.087 137.167 217.001 131.384C217.658 130.744 218.972 130.185 218.102 128.362C216.525 129.462 214.997 130.399 213.634 131.516C211.498 133.257 209.51 135.163 207.375 136.92C198.175 144.526 188.91 152.05 179.727 159.689C165.452 171.549 153.805 185.726 144.129 201.48C135.866 214.934 129.854 229.21 127.094 244.652C126.568 244.339 126.059 244.027 125.533 243.715C125.796 242.187 126.059 240.66 126.355 239.132C127.636 232.331 129.919 225.842 132.696 219.501C141.501 199.476 154.068 182.112 169.509 166.687C182.06 154.136 196.368 143.689 209.921 132.354C227.942 117.29 242.956 99.8602 253.256 78.5867C257.873 69.0423 261.585 59.1694 264.066 48.8694C264.526 46.931 265.478 44.8611 263.688 43.0213C263.688 42.972 263.655 42.9227 263.655 42.8899C263.655 42.9227 263.639 42.9391 263.622 42.972C263.474 44.0891 263.507 45.2719 263.162 46.3232C257.79 62.5699 250.234 77.7653 240.049 91.4986C227.268 108.731 212.336 123.976 195.563 137.364C184.803 145.972 174.109 154.629 163.957 163.976C149.386 177.398 138.035 193.069 129.903 211.09C125.665 220.487 122.215 230.13 119.357 239.953C118.814 239.608 118.272 239.28 117.73 238.951C118.798 235.222 119.915 231.51 121.098 227.813C121.673 226.006 122.872 224.298 122.264 222.277C121.328 224.232 120.276 226.138 119.554 228.158C118.371 231.411 117.254 234.68 116.137 237.966C114.921 237.193 113.722 236.438 112.506 235.666C114.149 230.557 115.825 225.448 117.517 220.355C121.656 207.953 126.24 195.714 131.858 183.87C141.961 162.564 155.908 144.395 174.635 129.906C182.438 123.877 189.929 117.438 197.518 111.146C210.019 100.78 219.925 88.1967 228.582 74.562C237.765 60.073 242.956 43.8755 248.493 27.8423C248.706 27.2345 248.295 26.4296 248.065 25.6739C246.653 28.2037 245.207 30.6843 243.926 33.2469C240.542 40.015 237.305 46.8817 233.856 53.617C223.424 74.0034 209.132 91.0879 190.422 104.443C184.081 108.977 177.822 113.708 171.99 118.867C162.84 126.965 155.135 136.378 148.614 146.76C139.086 161.956 130.363 177.595 123.792 194.301C118.683 207.263 113.886 220.339 108.991 233.382C108.449 233.037 107.907 232.676 107.365 232.331C107.972 230.639 108.547 228.914 109.106 227.189C113.246 214.31 116.317 201.086 119.899 188.026C122.445 178.728 124.58 169.282 127.735 160.182M228.237 213.193L228.27 212.618L227.778 212.93L228.237 213.193ZM222.586 181.439C223.687 180.568 224.804 179.73 224.426 178.038C223.26 178.876 222.537 179.96 222.586 181.439ZM346.006 11.1192C346.006 11.1192 346.006 11.1521 346.006 11.1685C346.285 10.8564 346.564 10.5607 346.86 10.2486C346.581 10.5443 346.301 10.8399 346.022 11.1356M350.688 4.30185C350.901 4.10471 351.115 3.90759 351.312 3.71045C351.279 3.69403 351.23 3.66116 351.197 3.64471C351.033 3.85828 350.852 4.07187 350.688 4.30185ZM354.022 -3.35336C354.022 -3.35336 353.924 -3.27121 353.858 -3.22192C353.924 -3.22192 354.006 -3.20547 354.072 -3.20547C354.236 -4.24042 354.384 -5.29178 354.548 -6.34314C353.694 -5.52176 353.513 -4.51968 354.006 -3.35336M354.745 -6.88525C355.304 -7.78876 356.092 -8.62656 355.599 -9.82574C354.86 -8.97153 354.269 -8.06802 354.745 -6.88525ZM367 -23.8876C367.181 -24.134 367.378 -24.3805 367.575 -24.6269C366.491 -24.8733 366.852 -24.3312 367 -23.8876ZM258.76 283.207L258.957 282.911L258.546 282.845L258.76 283.207ZM262.604 273.514C266.267 255.411 267.828 237.161 266.826 218.696C266.628 215.033 266.628 211.353 266.645 207.673C266.711 194.301 270.144 181.8 276.6 170.104C282.267 159.82 288.904 150.177 296.444 141.192C305.446 130.464 314.679 119.918 323.533 109.043C340.108 88.7059 352.757 66.2661 359.641 40.7543C363.715 25.6575 367.214 10.4621 369.513 -5.01251C370.943 -14.5569 372.257 -24.1176 375.608 -33.2348C376.068 -34.4669 376.577 -35.8796 375.444 -37.1281C375.394 -37.1446 375.674 -37.2267 375.444 -37.2267C370.4 -26.3189 367.181 -14.8525 364.766 -3.12335C363.238 4.30182 361.645 11.7106 360.018 19.1194C357.258 31.7192 353.349 43.9412 348.289 55.8018C342.112 70.3072 333.472 83.2356 323.106 95.047C314.925 104.361 306.563 113.528 298.481 122.941C274.776 150.555 261.027 182.654 256.066 218.548C253.486 237.226 255.474 255.674 259.795 273.942C259.992 274.747 260.452 275.502 260.764 276.241C262.669 275.913 262.439 274.5 262.637 273.531M257.495 278.41C257.692 278.361 257.889 278.328 258.07 278.278C257.856 277.901 257.643 277.523 257.413 277.145C257.429 277.572 257.462 277.983 257.478 278.41M354.581 10.4128C351.164 20.8936 347.993 31.4728 344.248 41.8385C337.841 59.5308 328.281 75.4162 315.664 89.3959C307.648 98.2667 299.401 106.924 291.467 115.86C272.115 137.693 258.283 162.613 250.349 190.737C246.423 204.651 245.256 218.762 247.228 233.087C249.035 246.294 251.679 259.338 255.803 272.052C255.737 273.843 255.967 275.519 257.347 276.816C258.497 275.108 257.61 273.547 256.936 271.954C256.575 269.473 256.296 266.96 255.819 264.496C251.515 241.777 252.32 219.255 258.283 196.897C263.704 176.56 271.491 157.274 283.352 139.795C289.939 130.087 297.381 121.052 305.134 112.263C311.985 104.509 318.999 96.9197 325.652 89.0181C334.589 78.4224 341.735 66.6932 347.057 53.8634C351.476 43.2348 355.041 32.3435 357.603 21.1235C360.823 7.02881 363.994 -7.08237 367.131 -21.21C367.279 -21.8999 367.016 -22.672 366.869 -23.4277C365.784 -21.5549 364.421 -19.7643 363.747 -17.7602C360.577 -8.41299 357.62 1.01636 354.564 10.4128M345.989 11.2506C345.825 12.2856 345.677 13.2877 345.529 14.2897C346.416 13.4355 346.811 12.4662 345.989 11.2506ZM345.332 14.7497C344.642 15.6039 343.854 16.4417 344.478 17.6738C345.102 16.7867 345.825 15.9325 345.332 14.7497ZM344.379 17.9859C343.131 18.8401 342.014 19.7436 342.507 21.5342C343.722 20.6636 344.544 19.5793 344.379 17.9859ZM228.55 194.663C228.467 194.794 228.336 194.926 228.336 195.057C228.336 195.123 228.336 195.205 228.369 195.287C228.435 195.074 228.5 194.876 228.55 194.663ZM211.449 217.103C212.861 215.559 212.27 214.096 211.104 212.667C211.137 212.602 211.169 212.519 211.202 212.454C211.153 212.47 211.087 212.503 211.038 212.519C211.169 214.047 211.317 215.575 211.449 217.103ZM212.812 265.153C212.96 266.254 213.239 267.338 213.453 268.422C215.194 268.307 214.751 267.141 214.8 266.369C214.866 265.219 214.767 264.069 214.718 262.919C213.256 226.154 223.359 192.527 242.447 161.381C247.737 152.74 253.782 144.641 260.583 137.118C260.895 136.773 261.224 136.444 261.487 136.083C269.947 124.501 280.444 114.858 290.547 104.805C313.167 82.25 329.858 55.7854 341.62 26.1667C342.162 24.8197 343.246 23.4234 342.425 21.7806C341.521 23.0127 340.453 24.179 339.796 25.5261C332.585 40.475 324.026 54.6026 314.104 67.8924C310.802 72.3114 307.451 76.6975 303.869 80.8865C296.855 89.1002 289.693 97.1989 282.53 105.281C273.544 115.433 264.312 125.388 255.491 135.688C242.25 151.114 231.194 167.952 223.309 186.811C212.779 212.01 209.33 238.097 212.796 265.153M205.354 205.193C205.19 205.209 204.993 205.193 204.861 205.259C204.73 205.341 204.631 205.456 204.516 205.571C204.796 205.439 205.075 205.324 205.354 205.193ZM208.147 187.024C203.629 196.979 198.75 206.77 194.66 216.889C191.604 224.462 189.485 232.43 187.12 240.265C186.479 242.401 186.446 244.717 186.134 246.951C185.28 248.528 184.639 250.105 185.658 251.863L184.623 254.524C186.15 253.949 186.66 253.079 185.723 251.88C187.005 250.467 187.251 248.808 186.923 247.001C187.054 246.804 187.235 246.639 187.3 246.426C192.015 228.75 199.999 212.306 206.816 195.435C208.18 192.051 209.625 188.7 210.907 185.299C211.383 184.051 211.761 182.654 210.512 181.504C210.693 181.34 210.857 181.176 211.038 181.012C210.857 181.143 210.677 181.291 210.496 181.422C209.707 183.295 208.985 185.201 208.147 187.041M214.931 157.865C205.88 170.022 195.383 181.061 187.53 194.121C182.191 202.992 177.477 212.142 173.994 221.932C169.986 233.234 170.544 244.487 173.682 255.806C173.764 256.118 174.306 256.299 175.045 256.857C175.144 255.51 175.226 254.442 175.292 253.374C175.538 249.481 175.735 245.571 176.064 241.695C177.625 223.279 185.263 207.312 195.53 192.281C202.134 182.622 208.18 172.584 214.422 162.679C215.506 160.97 216.278 159.081 217.198 157.29C215.851 156.239 215.326 157.323 214.915 157.882M280.625 59.8265C279.08 62.0607 277.733 64.4426 276.846 67.2517C277.421 66.7753 278.128 66.3975 278.571 65.839C288.378 53.4199 298.185 40.9679 307.96 28.5159C314.334 20.4007 320.79 12.3184 327.032 4.10471C337.595 -9.79291 347.451 -24.1669 355.599 -39.6251C356.733 -41.7607 358.606 -43.7977 357.521 -46.5739C357.883 -46.8532 358.228 -47.1324 358.589 -47.4117C358.77 -47.5595 358.934 -47.7074 359.115 -47.8553C358.901 -47.7731 358.638 -47.7238 358.458 -47.576C358.113 -47.2803 357.833 -46.9353 357.521 -46.6068C354.104 -40.9229 350.934 -35.0747 347.238 -29.588C338.515 -16.6431 329.085 -4.224 319.393 8.03088C308.863 21.3535 298.875 35.0868 288.69 48.6723C285.931 52.3356 283.237 56.0647 280.625 59.8265ZM272.707 67.5474C272.805 67.3667 272.887 67.186 272.986 67.0053C272.822 67.0053 272.657 67.0218 272.493 67.0382C272.559 67.2189 272.641 67.3831 272.707 67.5638M283.713 52.2864C294.834 37.6824 305.726 22.8813 316.946 8.35941C330.005 -8.5444 343.147 -25.3661 353.924 -43.8798C355.254 -46.1632 357.324 -48.3152 356.552 -51.3871C356.848 -51.6664 357.16 -51.9128 357.423 -52.2085C357.554 -52.3564 357.587 -52.6028 357.669 -52.7999C357.571 -52.6192 357.488 -52.4385 357.357 -52.2906C357.111 -51.9949 356.831 -51.6992 356.552 -51.4036C349.439 -39.2966 341.11 -28.0602 332.026 -17.3824C325.176 -9.33292 318.03 -1.54633 311.114 6.43741C303.59 15.144 296.756 24.3433 290.974 34.3148C286.604 41.8549 282.251 49.4115 277.93 56.9846C277.142 58.3645 276.6 59.8758 276.222 61.5021C279.393 58.9559 281.331 55.424 283.729 52.2864M343.558 -52.2578C342.54 -51.2065 341.554 -50.1551 340.519 -49.1201C330.186 -38.7052 319.804 -28.323 309.504 -17.8588C303.393 -11.6492 297.446 -5.29178 292.189 1.7063C285.816 10.1993 280.92 19.4808 276.518 29.0908C276.255 29.6822 276.337 30.4214 276.271 31.1114C285.602 14.5033 297.923 0.704224 311.245 -12.3391C322.235 -23.1155 332.141 -34.8611 341.537 -47.0339C342.622 -48.4302 343.344 -50.1058 343.542 -52.2414M347.928 -52.6028C349.028 -53.457 350.145 -54.3276 351.46 -55.3625C349.258 -55.3297 348.913 -53.572 347.928 -52.6028ZM273.117 48.2781C273.117 48.2781 273.084 48.3109 273.068 48.3273C273.019 48.3766 273.035 48.4588 273.002 48.5245C273.035 48.4423 273.068 48.3602 273.117 48.2781ZM263.359 62.0278C263.573 61.2229 263.786 60.4179 264 59.613C263.261 60.2701 262.669 60.9765 263.359 62.0278ZM264.181 59.0873C264.493 58.2823 264.805 57.4774 265.117 56.656C264.329 57.2639 263.721 57.9538 264.181 59.0873ZM265.298 55.9004C265.331 55.6868 265.363 55.4733 265.38 55.2597C265.38 55.2104 265.133 55.1447 265.002 55.0954C265.101 55.3583 265.199 55.6375 265.298 55.9004ZM273.38 47.7688C277.158 41.05 280.625 34.1833 284.699 27.6781C287.853 22.6513 291.516 17.8873 295.409 13.4026C304.871 2.49481 314.909 -7.95303 324.141 -19.058C332.19 -28.7337 339.517 -39.0173 347.057 -49.1201C347.616 -49.8758 347.402 -51.2064 347.533 -52.2906C344.872 -48.5945 342.408 -44.7505 339.517 -41.2514C330.925 -30.8036 322.12 -20.5529 312.494 -11.025C307.779 -6.34314 303.147 -1.56277 298.645 3.33261C288.493 14.4047 280.641 27.0045 274.826 40.8365C273.922 42.9884 272.312 45.1404 273.347 47.736M265.758 48.8859C265.758 48.8859 265.774 48.9023 265.791 48.9187C265.856 48.623 265.938 48.3109 266.004 48.0152C265.922 48.3109 265.84 48.6066 265.758 48.8859ZM269.881 42.2656C269.881 42.2656 269.914 42.2163 269.947 42.1999C269.947 42.1999 269.897 42.2328 269.881 42.2656ZM122.626 221.587C123.348 220.881 123.907 220.093 123.775 218.992C123.398 219.863 123.02 220.717 122.626 221.587ZM124.12 215.871C124.153 215.624 124.203 215.378 124.235 215.131C124.482 214.918 124.728 214.688 124.958 214.474C124.695 214.639 124.449 214.803 124.17 214.951C124.153 215.263 124.137 215.575 124.12 215.871ZM268.452 29.0087C268.255 29.2879 268.058 29.5836 267.877 29.8629C268.173 29.8958 268.468 29.9286 268.764 29.9615C268.665 29.6494 268.567 29.3208 268.468 29.0087M264.608 40.0972C265.659 38.7994 266.711 37.5017 267.778 36.2039C266.727 37.5017 265.676 38.7994 264.624 40.0972M134.305 198.786C138.494 190.277 144.096 182.72 150.273 175.623C159.489 165.011 169.953 155.713 180.844 146.843C190.997 138.58 201.362 130.514 210.874 121.544C229.568 103.951 245.536 84.2048 255.852 60.3358C260.616 49.2966 263.984 37.8959 266.185 26.1175C267.959 16.6388 269.799 7.16022 271.573 -2.31842C271.639 -2.67981 271.359 -3.10693 271.212 -3.66547C269.224 -2.87695 268.715 -1.03708 268.14 0.622101C264.772 10.38 260.945 20.0229 258.25 29.9779C253.355 48.0974 246.094 65.1326 236.106 80.9686C226.759 95.7862 216.048 109.536 202.759 121.101C191.834 130.596 180.795 139.943 170.019 149.602C157.649 160.691 146.741 173.077 138.297 187.484C136.802 190.047 135.505 192.757 134.355 195.501C133.961 196.421 134.289 197.636 134.273 198.72C133.928 199.016 133.583 199.295 133.238 199.575C133.057 199.722 132.893 199.854 132.712 200.002C132.926 199.903 133.172 199.854 133.336 199.706C133.665 199.41 133.961 199.065 134.273 198.753M249.33 31.6535C246.571 39.2101 243.876 46.7831 240.903 54.2576C234.628 69.9787 225.675 84.0734 214.438 96.739C205.403 106.924 195.416 116.025 184.639 124.337C177.904 129.528 171.316 134.916 164.943 140.534C156.088 148.338 148.942 157.635 142.815 167.705C135.62 179.5 129.624 191.903 125.073 204.963C124.433 206.803 124.12 208.758 123.677 210.68C125.763 209.185 126.322 206.688 127.455 204.601C131.381 197.341 135.061 189.932 139.135 182.737C142.651 176.527 147.102 170.975 151.916 165.668C163.366 153.019 175.768 141.454 189.009 130.727C197.584 123.779 205.863 116.485 213.239 108.238C232.854 86.3404 247.375 61.6335 255.376 33.1977C257.856 24.3597 260.83 15.6532 263.556 6.88092C264.016 5.40247 264.394 3.90759 265.248 0.901367C263.458 2.75766 262.587 3.3819 262.094 4.2197C256.92 12.9427 252.78 22.142 249.314 31.6699" fill="white"/>
<path d="M92.7442 155.5C94.9291 137.068 99.6109 119.442 108.942 103.179C114.231 93.9628 120.474 85.5026 127.242 77.3382C132.712 70.7344 138.823 64.7876 145.953 60.1223C156.515 53.2063 167.292 46.5861 178.265 40.3436C200.656 27.5959 220.205 11.3328 237.782 -7.32875C249.298 -19.5508 259.17 -33.1691 269.438 -46.4424C276.041 -54.9847 282.629 -63.5434 289.463 -71.905C294.851 -78.4924 300.781 -84.4555 307.106 -89.9423C307.599 -89.5973 308.075 -89.2688 308.568 -88.9238C303.097 -84.3898 300.584 -81.5479 297.758 -77.5067C301.274 -79.0345 303.459 -81.3836 305.808 -83.4699C307.385 -84.8662 308.978 -86.2297 310.588 -87.5603C311.098 -87.2153 311.607 -86.8704 312.116 -86.5418C303.097 -79.3302 294.867 -71.2314 287.803 -61.8185C273.019 -42.122 273.101 -42.0728 271.852 -36.931C272.805 -37.6702 273.528 -38.1466 274.136 -38.738C285.964 -49.9579 297.693 -61.2928 309.636 -72.3978C312.954 -75.4697 316.092 -78.7059 319.163 -82.0078C319.689 -81.6793 320.215 -81.3507 320.74 -81.0222C308.814 -68.3731 295.721 -56.9232 283.023 -45.0626C267.647 -30.7214 253.93 -15.0168 242.907 2.93839C235.334 15.2754 227.827 27.6452 220.09 39.8837C212.714 51.5636 204.549 62.6521 195.12 72.7878C185.838 82.7757 175.423 91.4001 164.581 99.5809C158.339 104.279 151.982 108.895 146.183 114.086C133.895 125.093 125.993 138.974 121.049 154.613C116.876 167.82 114.33 181.373 112.868 195.123C111.554 207.443 108.662 219.156 104.457 230.376C103.948 230.048 103.438 229.703 102.929 229.358C107.151 217.908 109.894 205.965 111.11 193.529C111.209 192.445 112.211 190.868 110.207 190.047C108.186 196.289 106.543 202.532 104.145 208.478C101.878 214.129 99.5123 219.797 96.8347 225.267C96.3583 224.939 95.8819 224.61 95.389 224.282C99.5287 215.953 103.011 207.345 105.558 198.31C105.87 197.176 105.87 195.961 106.001 194.778C104.227 196.306 103.373 198.129 102.354 199.87C98.6417 206.211 94.8962 212.519 91.1179 218.828C90.7565 219.419 90.3951 220.01 90.0337 220.602C88.8016 219.731 87.5696 218.877 86.3375 217.99C91.8571 206.277 96.2761 194.154 98.5924 181.357C100.679 169.825 102.239 158.21 103.997 146.629C104.408 143.902 104.654 141.159 104.983 138.415C108.646 106.924 124.745 83.1699 150.437 65.379C157.994 60.1551 165.37 54.6684 173.058 49.658C179.974 45.1404 187.038 40.82 194.331 36.9267C212.024 27.4974 226.628 14.339 240.148 -0.215683C252.402 -13.4233 262.341 -28.323 272.23 -43.2556C274.875 -47.2474 277.471 -51.2721 279.606 -55.7568C278.719 -54.9519 277.717 -54.2619 276.994 -53.342C271.212 -45.9168 265.429 -38.4752 259.745 -30.9678C242.447 -8.10085 222.767 12.3841 199.26 28.9266C191.949 34.0683 184.196 38.5859 176.573 43.2841C167.768 48.7052 158.832 53.8798 150.092 59.383C139.858 65.8226 131.447 74.2827 124.236 83.9256C120.523 88.8867 117.172 94.0942 113.706 99.2359C102.634 115.631 97.4096 134.062 94.8469 153.414C94.3705 157.06 94.042 160.724 93.812 164.387C92.6292 182.096 89.2123 199.328 83.8077 216.166C83.2656 215.789 82.7399 215.394 82.1978 215C87.0932 199.476 90.5758 183.607 91.7093 167.163C91.9721 163.27 92.3007 159.36 92.7607 155.483M287.886 -65.7283C287.886 -65.7283 287.754 -65.8597 287.688 -65.909C286.933 -65.1205 286.161 -64.3319 285.405 -63.5434C285.471 -63.4777 285.536 -63.412 285.602 -63.3463C286.358 -64.1348 287.13 -64.9233 287.886 -65.7119M212.139 36.6639C215.03 33.132 218.003 29.6658 220.96 26.1832C220.714 26.0189 220.467 25.8711 220.221 25.7068C215.441 29.9779 210.693 34.2983 205.896 38.5202C200.36 43.3827 194.216 47.391 187.941 51.235C175.966 58.5781 164.861 67.0711 154.988 77.0754C147.185 84.9769 141.222 94.2256 135.571 103.704C135.111 104.46 134.996 105.429 134.207 107.844C136.096 105.347 137.016 104.066 138.018 102.817C139.168 101.388 140.466 100.057 141.517 98.5624C147.563 90.0037 155.513 83.3999 163.776 77.1904C171.464 71.4079 179.415 65.9376 187.185 60.2372C196.467 53.4199 204.845 45.6168 212.155 36.6639M214.455 39.9001C216.229 37.5674 218.118 35.3004 219.4 32.442C218.611 33.0499 217.757 33.5755 217.067 34.2655C215.441 35.8918 213.831 37.5345 212.336 39.2594C200.985 52.3685 187.563 63.0463 173.189 72.6399C162.856 79.5395 153.23 87.3096 145.164 96.854C139.957 102.998 135.439 109.618 131.71 116.748C130.971 118.16 130.379 119.672 129.952 121.199C129.837 121.61 130.577 122.284 130.922 122.826C131.25 122.842 130.264 122.957 130.922 122.957C134.7 116.041 139.989 110.324 145.312 104.624C154.429 94.8498 165.107 86.899 175.538 78.636C189.978 67.2025 203.252 54.6026 214.439 39.9001M160.606 100.287C175.391 89.6259 188.861 77.5517 200.64 63.6213C204.04 59.5966 207.211 55.3583 210.348 51.1036C211.334 49.7565 211.859 48.0645 211.958 46.1589C210.036 48.4095 208.163 50.6929 206.192 52.8942C198.373 61.6664 189.584 69.4037 180.582 76.9111C171.941 84.1227 163.086 91.0387 154.429 98.2175C145.328 105.758 138.067 114.924 131.71 124.83C131.119 125.75 130.462 126.67 131.135 127.803C132.055 126.834 133.057 125.947 133.829 124.879C141.172 114.957 150.717 107.4 160.606 100.271M131.02 128.115C130.264 128.756 129.492 129.413 128.737 130.054C130.478 130.284 130.987 129.397 131.02 128.115ZM105.738 187.829C109.549 178.958 112.26 169.71 114.396 160.313C116.893 149.356 119.209 138.366 121.607 127.393C124.351 114.826 127.34 102.357 133.074 90.7265C133.451 89.9545 133.616 89.0838 134.273 87.0304C132.745 88.6074 132.006 89.1495 131.562 89.8887C127.028 97.1168 123.365 104.756 121.065 112.969C118.897 120.69 116.761 128.444 115.201 136.313C111.701 153.857 108.646 171.484 103.619 188.683C103.438 189.324 103.504 190.047 103.373 192.018C104.556 189.932 105.262 188.946 105.738 187.845M95.8654 201.776C96.6047 200.971 97.3932 200.166 96.9496 198.901C96.079 199.673 95.4547 200.544 95.8654 201.776ZM132.564 83.1535C117.451 99.8273 109.04 117.733 106.806 138.547C105.788 148.14 104.621 157.734 103.044 167.245C101.582 176.067 99.463 184.79 97.6396 193.562C97.2946 195.254 96.1776 196.881 97.0318 198.704C99.0031 197.258 99.4795 194.942 100.104 192.856C102.289 185.595 104.539 178.35 106.231 170.975C108.597 160.675 110.371 150.26 112.589 139.927C114.33 131.844 116.17 123.779 118.289 115.795C120.835 106.201 124.696 97.1332 130.084 88.7553C130.889 87.5068 131.316 86.0283 132.564 83.1699M211.991 28.3352C198.29 36.6146 184.409 44.6312 170.955 53.272C157.485 61.9128 146.117 72.8699 137.673 86.6197C133.566 93.3056 130.511 100.452 128.408 108.008C128.178 108.862 128.112 109.799 128.03 110.686C128.014 110.883 128.195 111.113 128.474 111.803C130.051 109.881 131.02 107.844 132.088 105.905C139.924 91.7286 149.567 78.9974 161.739 68.221C169.148 61.6664 177.099 55.8676 185.493 50.66C194.085 45.3211 202.578 39.8837 209.74 32.6392C210.841 31.5385 211.827 30.3229 212.862 29.1565C212.566 28.8773 212.287 28.598 211.991 28.3352Z" fill="white"/>
<path d="M78.2058 146.333C78.5508 137.364 79.3229 128.427 81.0971 119.622C85.4175 98.1681 95.6025 80.1143 112.128 65.6582C119.291 59.3994 127.258 54.4218 135.817 50.43C147.07 45.1896 158.47 40.2943 169.707 35.0375C186.857 27.0045 203.005 17.2959 217.034 4.51534C235.268 -12.0928 251.482 -30.5737 266.875 -49.8266C275.779 -60.948 284.715 -72.0365 293.75 -83.0593C296.608 -86.5419 299.648 -89.8274 302.834 -92.965C303.311 -92.6201 303.804 -92.2751 304.28 -91.9301C300.354 -88.1518 296.625 -84.1435 293.142 -79.8888C283.549 -68.1432 274.185 -56.2004 264.69 -44.3727C252.583 -29.3087 239.983 -14.6719 226.003 -1.29997C218.529 5.84596 210.808 12.7126 202.184 18.5279C188.615 27.6944 174.273 35.366 159.226 41.822C149.731 45.896 140.236 50.085 131.119 54.9311C104.424 69.0916 88.5058 91.4164 82.7891 120.937C81.3106 128.575 80.7849 136.428 80.1936 144.214C79.6843 150.851 79.635 157.537 79.5036 164.206C79.1915 179.714 78.1237 195.123 75.8403 210.4C75.2653 209.973 74.7068 209.562 74.1318 209.135C75.8896 196.766 77.0723 184.346 77.4009 171.845C77.6309 163.336 77.8609 154.843 78.1894 146.333" fill="white"/>
</g>
</svg>
